<?xml version="1.0" encoding="UTF-8" standalone="no"?>
<!DOCTYPE svg PUBLIC "-//W3C//DTD SVG 1.1//EN" "http://www.w3.org/Graphics/SVG/1.1/DTD/svg11.dtd">
<svg width="100%" height="100%" viewBox="0 0 1080 1080" version="1.1" xmlns="http://www.w3.org/2000/svg" xmlns:xlink="http://www.w3.org/1999/xlink" xml:space="preserve" xmlns:serif="http://www.serif.com/" style="fill-rule:evenodd;clip-rule:evenodd;stroke-linecap:round;stroke-linejoin:round;stroke-miterlimit:1.5;">
    <g transform="matrix(1,0,0,1,0,-2380.791786)">
        <g id="LG---Main--M2-" serif:id="LG - Main (M2)" transform="matrix(1,0,0,1,0,2380.791786)">
            <rect x="0" y="0" width="1080" height="1080" style="fill:none;"/>
            <clipPath id="_clip1">
                <rect x="0" y="0" width="1080" height="1080"/>
            </clipPath>
            <g clip-path="url(#_clip1)">
                <g id="Main--M2-" serif:id="Main (M2)" transform="matrix(2.261193,0,0,2.261193,-1820.017514,-1548.898939)">
                    <g transform="matrix(0.663367,0,0,0.663367,685.486572,-1013.751869)">
                        <path d="M323.219,2732.324L533.97,2610.646C537.701,2608.492 542.299,2608.492 546.03,2610.646L805.579,2760.497C807.637,2761.685 809.258,2763.429 810.3,2765.476C811.147,2767.141 811.609,2769.008 811.609,2770.941L811.609,3070.643C811.609,3074.951 809.31,3078.932 805.579,3081.087L597.284,3201.346C595.418,3202.423 593.119,3202.423 591.254,3201.346C589.388,3200.269 588.239,3198.278 588.239,3196.124L588.239,2920.792C588.239,2903.405 578.882,2887.363 563.747,2878.803L323.265,2742.794C321.382,2741.729 320.213,2739.736 320.204,2737.572C320.194,2735.409 321.345,2733.406 323.219,2732.324Z" style="fill:rgb(148,148,148);"/>
                    </g>
                    <g transform="matrix(1.50307,0,0,1.50307,-1060.125646,106.830824)">
                        <path d="M1403.705,521.349L1304.035,464.979C1303.203,464.508 1302.688,463.629 1302.683,462.674C1302.679,461.719 1303.187,460.835 1304.014,460.357L1397.027,406.656C1398.674,405.705 1400.703,405.705 1402.35,406.656L1403.705,407.438L1403.705,521.349Z" style="fill:rgb(183,183,183);"/>
                    </g>
                    <g transform="matrix(1.50307,0,0,1.50307,-1060.125646,106.830824)">
                        <path d="M1420.978,555.633L1519.247,611.471C1518.828,612.638 1518.007,613.642 1516.899,614.281L1424.97,667.356C1424.147,667.832 1423.132,667.832 1422.309,667.356C1421.486,666.881 1420.978,666.002 1420.978,665.052L1420.978,555.633Z" style="fill:rgb(183,183,183);"/>
                    </g>
                    <g transform="matrix(-1,0,0,1,1583.70454,383.803867)">
                        <path d="M747.829,422.459L540,540L540,778.812C546.906,778.812 553.812,777.026 560,773.453L732.176,674.047C744.552,666.902 752.176,653.697 752.176,639.406L752.176,440.594C752.176,434.18 750.641,427.985 747.829,422.459ZM646.088,557.027C671.598,542.57 692.612,554.545 692.612,583.888C692.612,613.162 671.538,649.283 646.088,663.976C620.384,678.817 599.564,666.616 599.564,637.116C599.564,607.678 620.45,571.557 646.088,557.027Z" style="fill:rgb(40,40,40);stroke:rgb(40,40,40);stroke-width:0.88px;"/>
                    </g>
                    <g transform="matrix(-1,0,0,1,1583.70454,-762.308918)">
                        <path d="M540,1686.113L747.829,1568.571C744.376,1561.784 738.998,1556.004 732.176,1552.066L560,1452.66C547.624,1445.514 532.376,1445.514 520,1452.66L347.824,1552.066C341.002,1556.004 335.624,1561.784 332.171,1568.571C329.359,1574.098 327.824,1580.293 327.824,1586.707L327.824,1785.519C327.824,1799.809 335.448,1813.014 347.824,1820.16L520,1919.566C526.188,1923.138 533.094,1924.925 540,1924.925L540,1686.113ZM683.805,1561.089C685.049,1561.807 685.812,1563.136 685.805,1564.571C685.799,1566.007 685.024,1567.329 683.775,1568.035C653.891,1584.936 524.247,1658.259 524.247,1658.259C514.207,1663.937 508,1674.579 508,1686.113L508,1868.759C508,1870.188 507.238,1871.509 506,1872.223C504.762,1872.938 503.238,1872.938 502,1872.223C474.733,1856.481 363.824,1792.447 363.824,1792.447C361.349,1791.018 359.824,1788.377 359.824,1785.519L359.824,1586.707C359.824,1585.425 360.13,1584.186 360.692,1583.081C361.383,1581.723 362.459,1580.567 363.824,1579.779L536,1480.373C538.475,1478.944 541.525,1478.944 544,1480.373C544,1480.373 656.233,1545.17 683.805,1561.089Z" style="fill:rgb(40,40,40);stroke:rgb(40,40,40);stroke-width:0.88px;stroke-linecap:butt;stroke-miterlimit:2;"/>
                    </g>
                </g>
            </g>
        </g>
    </g>
</svg>
